<?xml version="1.0" encoding="UTF-8" standalone="no"?>
<!DOCTYPE svg PUBLIC "-//W3C//DTD SVG 1.1//EN"
 "http://www.w3.org/Graphics/SVG/1.1/DTD/svg11.dtd">
<!-- Generated by graphviz version 2.43.0 (0)
 -->
<!-- Title: KnowledgeGraph Pages: 1 -->
<svg width="1092pt" height="260pt"
 viewBox="0.00 0.00 1091.50 260.00" xmlns="http://www.w3.org/2000/svg" xmlns:xlink="http://www.w3.org/1999/xlink">
<g id="graph0" class="graph" transform="scale(1 1) rotate(0) translate(4 256)">
<title>KnowledgeGraph</title>
<polygon fill="white" stroke="transparent" points="-4,4 -4,-256 1087.5,-256 1087.5,4 -4,4"/>
<!-- n0 -->
<g id="node1" class="node">
<title>n0</title>
<polygon fill="none" stroke="black" points="183.5,-252 66.5,-252 66.5,-216 183.5,-216 183.5,-252"/>
<text text-anchor="middle" x="125" y="-230.3" font-family="Arial" font-size="14.00">第2章 &#160;线性代数</text>
</g>
<!-- n1 -->
<g id="node2" class="node">
<title>n1</title>
<polygon fill="none" stroke="black" points="194.5,-180 55.5,-180 55.5,-144 194.5,-144 194.5,-180"/>
<text text-anchor="middle" x="125" y="-158.3" font-family="Arial" font-size="14.00">1.1 本书面向的读者</text>
</g>
<!-- n0&#45;&gt;n1 -->
<g id="edge1" class="edge">
<title>n0&#45;&gt;n1</title>
<path fill="none" stroke="black" d="M125,-215.7C125,-207.98 125,-198.71 125,-190.11"/>
<polygon fill="black" stroke="black" points="128.5,-190.1 125,-180.1 121.5,-190.1 128.5,-190.1"/>
</g>
<!-- n2 -->
<g id="node3" class="node">
<title>n2</title>
<polygon fill="none" stroke="black" points="208.5,-108 41.5,-108 41.5,-72 208.5,-72 208.5,-108"/>
<text text-anchor="middle" x="125" y="-86.3" font-family="Arial" font-size="14.00">1.2 深度学习的历史趋势</text>
</g>
<!-- n1&#45;&gt;n2 -->
<g id="edge2" class="edge">
<title>n1&#45;&gt;n2</title>
<path fill="none" stroke="black" d="M125,-143.7C125,-135.98 125,-126.71 125,-118.11"/>
<polygon fill="black" stroke="black" points="128.5,-118.1 125,-108.1 121.5,-118.1 128.5,-118.1"/>
</g>
<!-- n3 -->
<g id="node4" class="node">
<title>n3</title>
<polygon fill="none" stroke="black" points="250,-36 0,-36 0,0 250,0 250,-36"/>
<text text-anchor="middle" x="125" y="-14.3" font-family="Arial" font-size="14.00">1.2.1 神经网络的众多名称和命运变迁</text>
</g>
<!-- n2&#45;&gt;n3 -->
<g id="edge3" class="edge">
<title>n2&#45;&gt;n3</title>
<path fill="none" stroke="black" d="M125,-71.7C125,-63.98 125,-54.71 125,-46.11"/>
<polygon fill="black" stroke="black" points="128.5,-46.1 125,-36.1 121.5,-46.1 128.5,-46.1"/>
</g>
<!-- n4 -->
<g id="node5" class="node">
<title>n4</title>
<polygon fill="none" stroke="black" points="366,-252 202,-252 202,-216 366,-216 366,-252"/>
<text text-anchor="middle" x="284" y="-230.3" font-family="Arial" font-size="14.00">1.2.2 与日俱增的数据量</text>
</g>
<!-- n5 -->
<g id="node6" class="node">
<title>n5</title>
<polygon fill="none" stroke="black" points="563.5,-252 384.5,-252 384.5,-216 563.5,-216 563.5,-252"/>
<text text-anchor="middle" x="474" y="-230.3" font-family="Arial" font-size="14.00">1.2.3 与日俱增的模型规模</text>
</g>
<!-- n6 -->
<g id="node7" class="node">
<title>n6</title>
<polygon fill="none" stroke="black" points="916.5,-252 581.5,-252 581.5,-216 916.5,-216 916.5,-252"/>
<text text-anchor="middle" x="749" y="-230.3" font-family="Arial" font-size="14.00">1.2.4 与日俱增的精度、复杂度和对现实世界的冲击</text>
</g>
<!-- n100 -->
<g id="node8" class="node">
<title>n100</title>
<polygon fill="none" stroke="black" points="1083.5,-252 934.5,-252 934.5,-216 1083.5,-216 1083.5,-252"/>
<text text-anchor="middle" x="1009" y="-230.3" font-family="Arial" font-size="14.00">第20章 深度生成模型</text>
</g>
</g>
</svg>
